<?xml version="1.0" standalone="no"?>
<!DOCTYPE svg PUBLIC "-//W3C//DTD SVG 20010904//EN"
 "http://www.w3.org/TR/2001/REC-SVG-20010904/DTD/svg10.dtd">
<svg version="1.0" xmlns="http://www.w3.org/2000/svg"
 width="450.000000pt" height="450.000000pt" viewBox="0 0 450.000000 450.000000"
 preserveAspectRatio="xMidYMid meet">

<g transform="translate(0.000000,450.000000) scale(0.100000,-0.100000)"
fill="#000000" stroke="none">
<path d="M2735 3760 c-112 -7 -131 -12 -162 -49 -39 -45 -31 -51 60 -45 141 9
167 14 167 32 0 9 12 29 27 44 15 15 23 27 17 26 -5 -1 -54 -4 -109 -8z"/>
<path d="M2977 3764 c-3 -4 -28 -6 -54 -6 -42 1 -50 -2 -80 -36 -40 -45 -41
-54 -6 -50 18 2 29 10 31 22 3 13 0 16 -9 11 -8 -5 -10 -4 -5 3 4 7 16 12 27
12 10 0 19 7 19 15 0 8 7 15 15 15 11 0 8 -10 -11 -37 -29 -42 -63 -115 -83
-180 -12 -37 -12 -45 3 -68 12 -18 13 -25 4 -25 -10 0 -10 -2 0 -9 10 -6 15
-43 19 -127 3 -66 7 -121 8 -122 2 -2 54 0 117 5 l113 8 3 46 c2 36 8 49 25
58 12 6 14 10 5 7 -21 -6 -28 12 -17 42 12 32 53 27 57 -7 2 -13 0 -26 -5 -30
-5 -3 -4 -17 4 -31 11 -22 13 -11 13 88 0 175 -42 318 -110 376 -30 24 -69 34
-83 20z m53 -14 c11 -7 7 -10 -17 -10 -18 0 -33 5 -33 10 0 13 30 13 50 0z
m35 -30 c4 -6 -7 -10 -24 -10 -17 0 -31 5 -31 10 0 6 11 10 24 10 14 0 28 -4
31 -10z m23 -42 c3 -13 -3 -18 -21 -18 -24 0 -42 21 -29 34 12 13 47 1 50 -16z
m20 -50 c3 -13 -3 -18 -22 -18 -20 0 -26 5 -26 21 0 15 5 20 22 17 13 -2 24
-11 26 -20z m20 -65 c3 -19 -1 -23 -22 -23 -14 0 -26 4 -26 9 0 5 -3 17 -6 26
-6 13 -1 16 22 13 21 -2 30 -9 32 -25z m20 -85 c5 -27 -44 -24 -51 3 -5 17 -1
20 21 17 16 -2 28 -10 30 -20z m4 -62 c3 -16 0 -27 -9 -30 -32 -12 -43 -6 -43
24 0 25 4 30 24 30 17 0 25 -7 28 -24z"/>
<path d="M2785 3630 c-9 -15 3 -30 25 -30 15 0 30 18 30 36 0 9 -49 3 -55 -6z"/>
<path d="M2602 3623 c-81 -4 -83 -5 -102 -35 -23 -38 -56 -144 -65 -210 l-7
-48 58 1 c33 1 90 4 128 8 l68 6 34 115 c54 183 53 170 8 168 -22 -1 -76 -4
-122 -5z"/>
<path d="M2775 3580 c-19 -8 -19 -9 3 -9 12 -1 22 -7 22 -13 0 -9 4 -8 10 2
20 30 6 38 -35 20z"/>
<path d="M2744 3504 c3 -9 6 -19 6 -24 0 -16 38 2 43 21 4 16 0 19 -25 19 -23
0 -29 -4 -24 -16z"/>
<path d="M1868 3273 c-20 -2 -42 -11 -50 -20 -7 -9 -15 -53 -18 -102 l-5 -86
-105 -6 c-136 -8 -181 -31 -224 -116 -15 -30 -30 -242 -51 -748 -9 -205 -13
-235 -35 -235 -42 0 -51 -25 -48 -139 l3 -106 110 -3 c93 -2 112 0 122 14 11
15 34 16 230 11 148 -3 191 -2 134 3 -158 16 -95 22 154 15 493 -16 873 -21
881 -12 3 3 20 0 37 -5 27 -10 29 -12 11 -19 -15 -6 -16 -8 -2 -8 42 -2 114
46 139 92 14 25 -15 22 -40 -4 -11 -12 -24 -18 -30 -14 -6 3 -11 -1 -11 -10 0
-19 -46 -38 -65 -27 -11 6 -7 12 15 27 37 25 76 96 84 157 4 26 13 49 21 52 8
3 15 18 15 33 0 15 3 44 6 63 5 30 10 36 32 38 42 3 62 36 62 101 0 31 3 110
6 176 6 113 5 121 -15 143 -16 16 -33 22 -66 22 l-43 0 5 195 c5 169 4 200
-11 239 -35 92 -101 122 -248 112 -97 -6 -98 -6 -99 16 -1 50 -18 -16 -18 -74
-1 -58 -7 -68 -28 -47 -6 6 -21 8 -34 4 -13 -5 -26 -8 -28 -9 -6 -2 -1 185 6
212 l6 23 -114 -2 c-63 -1 -121 -4 -130 -7 -14 -3 -18 -24 -25 -115 -4 -62 -7
-114 -7 -117 1 -3 -21 -5 -48 -5 l-49 0 6 48 c6 43 5 49 -15 54 -11 3 -21 9
-21 14 0 5 -25 9 -55 9 -42 0 -55 -4 -55 -15 0 -9 -6 -12 -15 -8 -13 4 -15 21
-14 87 2 45 -1 87 -5 94 -7 12 -166 14 -258 5z m186 -55 c-10 -13 -34 -40 -54
-61 l-35 -39 50 -44 c59 -53 53 -57 -17 -9 -55 37 -71 35 -82 -9 -7 -29 -31
-39 -57 -25 -31 16 -20 51 21 71 31 14 33 17 15 23 -56 18 -73 55 -35 75 25
13 47 0 61 -37 5 -13 12 -23 16 -23 5 1 35 23 68 50 68 55 76 60 49 28z m-206
-370 c-5 -15 -198 -24 -198 -10 0 19 17 22 108 22 70 0 93 -3 90 -12z m0 -70
c-5 -15 -198 -24 -198 -10 0 19 17 22 108 22 70 0 93 -3 90 -12z m-1 -65 c5
-16 -184 -30 -199 -15 -15 15 1 20 67 25 81 6 128 3 132 -10z m-7 -78 c0 -12
-17 -15 -94 -15 -87 0 -116 7 -99 24 3 3 48 6 100 6 76 0 93 -3 93 -15z m0
-70 c0 -12 -18 -15 -100 -15 -82 0 -100 3 -100 15 0 12 18 15 100 15 82 0 100
-3 100 -15z m0 -70 c0 -12 -18 -15 -100 -15 -82 0 -100 3 -100 15 0 12 18 15
100 15 82 0 100 -3 100 -15z m1322 -142 c-2 -82 -5 -153 -7 -160 -4 -13 -255
-19 -255 -5 0 5 10 8 23 8 16 -1 22 5 22 19 0 25 -32 32 -38 8 -3 -10 -5 48
-6 130 l-1 147 133 0 133 0 -4 -147z m-1324 75 c-3 -9 -33 -14 -92 -16 -92 -4
-121 1 -111 18 10 16 208 13 203 -2z m-28 -303 c0 -13 -25 -15 -165 -15 -140
0 -165 2 -165 15 0 13 25 15 165 15 140 0 165 -2 165 -15z m1038 -4 c12 -7
-811 -4 -833 4 -5 2 177 4 405 4 228 0 421 -3 428 -8z m-1054 -77 c44 -17 1
-24 -148 -24 -150 0 -187 5 -169 24 8 8 296 8 317 0z m858 -14 c175 0 318 -3
318 -7 0 -11 -885 -3 -935 8 -26 5 19 7 129 4 93 -3 312 -5 488 -5z m-899 -78
c26 -4 46 -11 45 -17 -4 -15 -208 -6 -238 11 -23 12 -17 13 60 13 47 -1 107
-4 133 -7z m550 -19 c-56 -2 -151 -2 -210 0 -59 1 -13 3 102 3 116 0 164 -2
108 -3z m157 -3 c20 -6 21 -8 5 -8 -11 0 -29 3 -40 8 -25 11 1 11 35 0z m368
0 c56 0 102 -3 102 -7 0 -11 -417 1 -427 11 -4 5 44 6 107 2 63 -3 161 -6 218
-6z m132 -10 c0 -5 -4 -10 -10 -10 -5 0 -10 5 -10 10 0 6 5 10 10 10 6 0 10
-4 10 -10z m-1509 -41 c21 -17 39 -37 39 -45 0 -17 -89 -76 -109 -72 -11 2
-14 18 -12 68 1 35 5 68 7 72 10 16 37 7 75 -23z"/>
<path d="M2916 2474 c-3 -9 -4 -20 -1 -24 9 -15 35 1 35 21 0 23 -25 25 -34 3z"/>
<path d="M2964 2475 c-3 -8 -3 -19 0 -24 10 -16 36 -1 36 20 0 22 -28 26 -36
4z"/>
<path d="M3017 2483 c-14 -13 -6 -33 13 -33 13 0 20 7 20 20 0 19 -20 27 -33
13z"/>
<path d="M3067 2483 c-14 -13 -6 -33 13 -33 13 0 20 7 20 20 0 19 -20 27 -33
13z"/>
<path d="M3117 2483 c-14 -13 -6 -33 13 -33 13 0 20 7 20 20 0 19 -20 27 -33
13z"/>
<path d="M2984 2432 c-51 -3 -52 -3 -58 -40 -3 -20 -6 -61 -6 -89 0 -55 2 -57
50 -54 10 0 11 -1 3 -5 -18 -8 -16 -54 2 -54 7 0 19 8 24 18 10 16 10 16 11
-1 0 -28 33 -17 40 13 3 14 14 26 23 26 13 2 13 1 2 -3 -8 -2 -15 -16 -15 -29
0 -34 31 -29 41 6 7 25 7 25 8 -3 1 -21 5 -28 19 -25 20 4 30 48 10 48 -11 0
-12 17 -4 90 5 50 7 93 4 95 -7 7 -91 11 -154 7z m31 -192 c-3 -5 -11 -10 -16
-10 -6 0 -7 5 -4 10 3 6 11 10 16 10 6 0 7 -4 4 -10z"/>
<path d="M2330 3109 c0 -5 5 -7 10 -4 6 3 10 8 10 11 0 2 -4 4 -10 4 -5 0 -10
-5 -10 -11z"/>
<path d="M2680 3076 c0 -8 -3 -22 -6 -31 -6 -13 -1 -16 22 -13 23 2 30 9 32
31 3 23 0 27 -22 27 -16 0 -26 -6 -26 -14z"/>
<path d="M2330 3050 c0 -25 4 -30 25 -30 21 0 25 5 25 30 0 25 -4 30 -25 30
-21 0 -25 -5 -25 -30z"/>
<path d="M2260 1732 c-13 -2 -15 -26 -12 -156 l3 -154 -123 4 c-68 3 -143 6
-168 9 -25 2 -96 -3 -157 -12 -98 -15 -116 -20 -139 -44 l-26 -27 99 -6 c54
-3 311 -16 572 -27 456 -20 478 -20 568 -3 118 22 124 26 95 57 -23 24 -26 25
-275 33 -139 5 -258 8 -264 7 -10 -1 -13 36 -13 153 0 116 -3 154 -12 154 -10
0 -10 2 -1 8 10 6 -114 10 -147 4z m124 -175 c-4 -81 -11 -144 -16 -141 -10 6
-11 288 -1 298 19 18 23 -24 17 -157z"/>
<path d="M2648 1713 c12 -2 30 -2 40 0 9 3 -1 5 -23 4 -22 0 -30 -2 -17 -4z"/>
</g>
</svg>
